<svg id="Layer_1" data-name="Layer 1" xmlns="http://www.w3.org/2000/svg" viewBox="0 0 1167.84 942">
  <defs>
    <style>
      .cls-1 {
        fill: #fff;
      }

      .cls-2 {
        fill: #443d3d;
      }

      .cls-3 {
        fill: #ff6d57;
      }

      .cls-4 {
        fill: #fe6d59;
      }

      .cls-5 {
        fill: #969191;
      }

      .cls-6 {
        fill: #d0cfcf;
      }

      .cls-7 {
        fill: #cdcccc;
      }

      .cls-8 {
        fill: #433c3c;
      }

      .cls-9 {
        fill: #fe6b57;
      }

      .cls-10 {
        fill: #dadada;
      }

      .cls-11 {
        fill: #d9d9d9;
      }

      .cls-12 {
        fill: #fd6b57;
      }

      .cls-13 {
        fill: #fefefe;
      }
    </style>
  </defs>
  <title>pokemon-error-1</title>
  <path class="cls-1" d="M0,139.09V0H538.34a7.34,7.34,0,0,1-.05.81c-14.2.65-28.35,2-42.46,3.77a468.41,468.41,0,0,0-54.12,10.13A449.88,449.88,0,0,0,335.25,55.9a478.85,478.85,0,0,0-117.54,90A451.57,451.57,0,0,0,162,217.11a481.34,481.34,0,0,0-49.59,103.42,440,440,0,0,0-16.61,64.41c-2.07,11.65-3.66,23.34-4.93,35.1C89.61,431.48,89,443,88.64,454.44c-.34,10.2-.15,20.42.24,30.64.57,14.7,1.69,29.34,3.5,43.92a471.42,471.42,0,0,0,10.31,55.53,445.45,445.45,0,0,0,38.37,100.94A472.61,472.61,0,0,0,229,803.92a474,474,0,0,0,125,88.64c38.84,19.46,79.81,32.32,122.53,39.84,11.95,2.1,24,3.84,36,5.15,10,1.08,20,1.91,30.1,2.28a472.77,472.77,0,0,0,62.74-1.46c15-1.44,29.83-3.49,44.57-6.36a447.07,447.07,0,0,0,61-16.47,487.19,487.19,0,0,0,63.76-27.34,514.11,514.11,0,0,0,56.75-33.87c27.08-18.71,51.39-40.56,73.72-64.71,7.79-8.43,14.74-17.61,22.72-25.87,9.71-13.09,19.18-26.38,28-40.09a475.54,475.54,0,0,0,35.31-66.33A450.29,450.29,0,0,0,1027,521.76c1.18-11.12,1.82-22.28,2.28-33.44.47-11.48.33-23-.28-34.48-.53-9.73-1.13-19.44-2-29.14q-2.07-22-6.23-43.61a460.59,460.59,0,0,0-17.12-64.28,452.77,452.77,0,0,0-51.92-104.36c-23.68-35.39-51.3-67.35-83.64-95.12-9.56-8.21-19-16.57-29.5-23.63-3.32-2.22-6.43-4.75-9.73-7-6.31-4.31-12-9.53-19.13-12.66a13.25,13.25,0,0,1-1.61-1c-3-1.88-5.9-3.83-8.92-5.62A486.18,486.18,0,0,0,697.75,21.45,449.64,449.64,0,0,0,626.4,5,425.88,425.88,0,0,0,581.57.8c0-.27,0-.53-.05-.8h586.32V839.36c-1.3.16-2-.91-2.84-1.51q-45.13-31.65-90.25-63.33c-1.4-1-2.85-1.92-4.52-3-3.09,4.37-6,8.53-9,12.7s-5.72,8.09-8.53,12.17-6.07,8.14-8.68,12.76c32.71,23,65.24,45.83,98,68.77,1.15-1.53,2.12-2.76,3-4l21.47-30.6c.33-.48.46-1.23,1.32-1V942H893.39c.67-1.81,2.48-1.89,3.89-2.46C911,934,924.83,928.48,938.61,923c1-.42,2.09-.81,3.1-1.29a1.54,1.54,0,0,0,.91-2c-.34-1.06-.68-2.12-1.1-3.16q-6.74-16.9-13.51-33.81c-.42-1-.8-2.09-1.29-3.09a1.27,1.27,0,0,0-1.59-.71c-.9.3-1.79.68-2.68,1l-27.56,11c-5.78,2.31-11.57,4.59-17.34,6.93-2.42,1-2.47,1.15-1.62,3.47.33.9.69,1.78,1.05,2.67q6.67,16.68,13.33,33.37c.58,1.45,1.57,2.83,1.16,4.55H0V140.05a1.8,1.8,0,0,1,1.55,1c.49,1,.92,2,1.34,3.06q6.75,16.88,13.49,33.74c1.6,4,1.55,4.41,5.76,2.72q22.17-8.91,44.4-17.71a18.15,18.15,0,0,0,1.73-.81,1.29,1.29,0,0,0,.68-1.6c-.27-.92-.61-1.81-1-2.7q-7-17.53-14.05-35.06a7.38,7.38,0,0,0-2-3.46c-2,.77-4,1.55-6.1,2.37C32.22,127,18.63,132.49,5,137.88,3.42,138.5,1.9,139.68,0,139.09Zm73.94,634a3.83,3.83,0,0,0-2.55,1.86L46.1,805c-.52.61-1,1.22-1.53,1.85a1.17,1.17,0,0,0,.13,1.69,17.2,17.2,0,0,0,1.44,1.25l76.58,64.43c.61.52,1.21,1.05,1.84,1.53a1.43,1.43,0,0,0,2.12-.06c.54-.58,1.07-1.18,1.59-1.79q12.63-15,25.26-30.05c.58-.69,1.39-1.28,1.26-2.73Z"/>
  <path class="cls-2" d="M1167.84,842.24c-.86-.22-1,.53-1.32,1l-21.47,30.6c-.9,1.28-1.87,2.51-3,4-32.73-22.94-65.26-45.78-98-68.77,2.61-4.62,5.8-8.59,8.68-12.76s5.68-8.12,8.53-12.17,5.87-8.33,9-12.7c1.67,1.11,3.12,2,4.52,3q45.12,31.66,90.25,63.33c.87.6,1.54,1.67,2.84,1.51Z"/>
  <path class="cls-3" d="M0,139.09c1.9.59,3.42-.59,5-1.21,13.63-5.39,27.22-10.87,40.83-16.32,2.06-.82,4.13-1.6,6.1-2.37a7.38,7.38,0,0,1,2,3.46Q61,140.17,68,157.71c.36.89.7,1.78,1,2.7a1.29,1.29,0,0,1-.68,1.6,18.15,18.15,0,0,1-1.73.81q-22.2,8.85-44.4,17.71c-4.21,1.69-4.16,1.29-5.76-2.72Q9.65,160.94,2.89,144.07C2.47,143,2,142,1.55,141a1.8,1.8,0,0,0-1.55-1Z"/>
  <path class="cls-4" d="M891.47,942c.41-1.72-.58-3.1-1.16-4.55q-6.63-16.71-13.33-33.37c-.36-.89-.72-1.77-1.05-2.67-.85-2.32-.8-2.49,1.62-3.47,5.77-2.34,11.56-4.62,17.34-6.93l27.56-11c.89-.35,1.78-.73,2.68-1a1.27,1.27,0,0,1,1.59.71c.49,1,.87,2.06,1.29,3.09q6.76,16.9,13.51,33.81c.42,1,.76,2.1,1.1,3.16a1.54,1.54,0,0,1-.91,2c-1,.48-2.06.87-3.1,1.29-13.78,5.52-27.57,11-41.33,16.58-1.41.57-3.22.65-3.89,2.46Z"/>
  <path class="cls-5" d="M545.06,0H574.8c0,.26.06.51.1.76C564.93,1.12,555,1,545,.84A3,3,0,0,0,545.06,0Z"/>
  <path class="cls-6" d="M545.06,0a3,3,0,0,1-.08.84l-6.69,0a7.34,7.34,0,0,0,.05-.81Z"/>
  <path class="cls-7" d="M574.9.76c0-.25-.07-.5-.1-.76h6.72c0,.27,0,.53.05.8A24.83,24.83,0,0,1,574.9.76Z"/>
  <path class="cls-8" d="M574.9.76a24.83,24.83,0,0,0,6.67,0A425.88,425.88,0,0,1,626.4,5a449.64,449.64,0,0,1,71.35,16.43A486.18,486.18,0,0,1,799.19,67.39c3,1.79,5.95,3.74,8.92,5.62a13.25,13.25,0,0,0,1.61,1c7.1,3.13,12.82,8.35,19.13,12.66,3.3,2.25,6.41,4.78,9.73,7,10.49,7.06,19.94,15.42,29.5,23.63,32.34,27.77,60,59.73,83.64,95.12a452.77,452.77,0,0,1,51.92,104.36,460.59,460.59,0,0,1,17.12,64.28q4.14,21.65,6.23,43.61c.92,9.7,1.52,19.41,2,29.14.61,11.5.75,23,.28,34.48-.46,11.16-1.1,22.32-2.28,33.44a450.29,450.29,0,0,1-35.9,135.57,475.54,475.54,0,0,1-35.31,66.33c-8.79,13.71-18.26,27-28,40.09-8,8.26-14.93,17.44-22.72,25.87-22.33,24.15-46.64,46-73.72,64.71a514.11,514.11,0,0,1-56.75,33.87,487.19,487.19,0,0,1-63.76,27.34,447.07,447.07,0,0,1-61,16.47c-14.74,2.87-29.61,4.92-44.57,6.36a472.77,472.77,0,0,1-62.74,1.46c-10.06-.37-20.09-1.2-30.1-2.28-12.08-1.31-24.09-3-36-5.15C433.76,924.88,392.79,912,354,892.56a474,474,0,0,1-125-88.64,472.61,472.61,0,0,1-87.92-118.45,445.45,445.45,0,0,1-38.37-100.94A471.42,471.42,0,0,1,92.38,529c-1.81-14.58-2.93-29.22-3.5-43.92-.39-10.22-.58-20.44-.24-30.64.37-11.48,1-23,2.21-34.4,1.27-11.76,2.86-23.45,4.93-35.1a440,440,0,0,1,16.61-64.41A481.34,481.34,0,0,1,162,217.11a451.57,451.57,0,0,1,55.73-71.25,478.85,478.85,0,0,1,117.54-90A449.88,449.88,0,0,1,441.71,14.71,468.41,468.41,0,0,1,495.83,4.58c14.11-1.8,28.26-3.12,42.46-3.77l6.69,0C555,1,564.93,1.12,574.9.76Zm279.73,415c-1.22.46-2.12.78-3,1.12L795,439.21c-7.88,3.1-15.78,6.15-23.62,9.35-5.52,2.25-4.7,1.08-4.56,6.75.08,3.51.57,7,.62,10.5A231.54,231.54,0,0,1,765.94,493a193.53,193.53,0,0,1-4.45,25.45,207.72,207.72,0,0,1-30,68,214.63,214.63,0,0,1-36.34,41.25,196.8,196.8,0,0,1-42,28.39,226.87,226.87,0,0,1-43,16.14,203.2,203.2,0,0,1-72.65,6.1,231.91,231.91,0,0,1-23.16-3.66A223,223,0,0,1,466,658c-6.05-2.87-6.56-2.67-10.54,2.87Q442,679.59,428.56,698.23q-20.93,28.95-41.88,57.87l-41.29,57.12c-2.15,3-4.3,6-6.37,9a2,2,0,0,0,.56,2.93c.89.68,1.84,1.27,2.79,1.86a374.31,374.31,0,0,0,43.07,23.1,444,444,0,0,0,87.07,29.23,384.23,384.23,0,0,0,44.4,7.25c3.81.38,7.65.52,11.45,1,8.41,1.08,16.89.81,25.34,1.32a179,179,0,0,0,18.66-.32c10.06-.46,20.09-1,30.1-2.09,10.48-1.11,20.9-2.66,31.26-4.57a445.9,445.9,0,0,0,47.91-11.67,433.42,433.42,0,0,0,63.82-24.77A394.94,394.94,0,0,0,803.52,811,381.39,381.39,0,0,0,841.8,779.9c9.58-8.94,18.82-18.23,27.55-28,8.09-9.08,15.72-18.52,23.14-28.14a7.68,7.68,0,0,0,1.84-6.17c-.86-6-1.59-12-2.37-18s-1.61-12.33-2.42-18.5-1.64-12.34-2.45-18.51q-1.15-8.78-2.28-17.56c-.78-6.18-1.48-12.36-2.28-18.54-1.17-9-2.4-18-3.58-27-.77-5.85-1.5-11.71-2.28-17.56-.79-6-1.64-12-2.42-18s-1.46-12-2.23-18.06c-.86-6.64-1.79-13.28-2.65-19.92-.74-5.7-1.39-11.41-2.15-17.1-1.13-8.54-2.37-17.07-3.48-25.61-1.13-8.7-2.12-17.42-3.24-26.13-1.17-9.18-2.29-18.37-3.69-27.51C856.14,425.05,856.17,420.53,854.63,415.75ZM182.48,288.11c-.53.29-.9.36-1,.57-.68,1.27-1.34,2.55-2,3.85A417.14,417.14,0,0,0,151,375.25a411.6,411.6,0,0,0-9.68,65.32c-.6,8.92-1.05,17.85-1,26.81.07,7.35.1,14.69.6,22,.46,6.7.67,13.41,1.34,20.08q2.14,21.21,6.32,42.14A415.65,415.65,0,0,0,268.86,770.36c6.57,6.3,13.33,12.41,20.36,18.21,3.08,2.53,3.73,2.42,6.1-.74.19-.26.34-.54.53-.8q57.73-79.85,115.46-159.7c.56-.78,1.15-1.55,1.63-2.37,1-1.62.9-2.49-.34-3.88-.85-1-1.78-1.84-2.71-2.72a174.68,174.68,0,0,1-16.34-18.16c-28-35.59-43.46-76-45.9-121.24a193.57,193.57,0,0,1,.41-25.37,202.05,202.05,0,0,1,3.45-25.14c9-43.7,29.82-80.93,61.95-111.85a202.82,202.82,0,0,1,66.18-42.4c2-.81,4.94-.87,5.74-2.93.74-1.91.1-4.4-.12-6.62-.78-7.94-1.67-15.88-2.46-23.82-.82-8.27-1.53-16.54-2.34-24.8q-1.29-13.35-2.67-26.69-.92-9.06-1.88-18.11c-.14-1.3-.73-1.59-1.94-1s-2.23,1.25-3.33,1.9l-105.41,61.9L237.92,308.84q-22.12,13-44.26,25.93c-1.31.77-2.47,2.11-4.5,1.6q-1-8-2.11-16.09c-.7-5.38-1.26-10.79-2.14-16.14S183.9,293.42,182.48,288.11ZM555.87,51.87c-13.7.13-28.52,1-43.3,2.59q-17.4,1.9-34.56,5.31a435.62,435.62,0,0,0-66.7,19.06C378.22,91.14,347,107,318.05,127.34a418.69,418.69,0,0,0-67.51,59.45c-6.06,6.58-11.73,13.51-17.61,20.26a4.87,4.87,0,0,0-1.24,4.36c.7,4.09,1.09,8.23,1.62,12.35q1,7.83,2.05,15.67c.29,2.1.91,2.39,2.83,1.26,8.54-5,17.06-10.06,25.6-15.07L439.47,122.51q40.71-23.9,81.41-47.82a30.82,30.82,0,0,1,2.94-1.58.8.8,0,0,1,1.1.58,34.36,34.36,0,0,1,.65,3.76c.77,7.79,1.5,15.58,2.24,23.37.73,7.63,1.44,15.26,2.21,22.89,1.12,11.11,2.31,22.22,3.43,33.34.79,7.95,1.46,15.9,2.25,23.84,1.13,11.28,2.34,22.55,3.46,33.84s2.15,22.56,3.23,33.85c.29,3,.59,6,.92,9,.2,1.79.6,2.16,2.48,2.11s3.81-.35,5.73-.38a229.93,229.93,0,0,1,37.25,2.35,204.69,204.69,0,0,1,52.31,15.07c4.23,1.86,8.37,4,12.52,6,4.44,2.22,5.21,2.08,8.3-2.08,1.43-1.93,2.79-3.9,4.19-5.85l110.69-153c3.51-4.86,3.45-5.35-1.6-8.42a404.77,404.77,0,0,0-51.81-27A432.29,432.29,0,0,0,601.5,54.48,427.64,427.64,0,0,0,555.87,51.87Zm421.87,416.5c.16-7.64-.44-15-.72-22.29-.35-9.11-1.23-18.17-2.34-27.18-1.17-9.49-2.81-18.94-4.63-28.33a385.08,385.08,0,0,0-17-60.3A432.43,432.43,0,0,0,925,269.41a479.17,479.17,0,0,0-31.48-49.23,358.07,358.07,0,0,0-33.23-39c-9.72-10-20-19.28-30.56-28.37-2.94-2.54-4.81-3.18-7.69,1-4.25,6.19-8.76,12.2-13.16,18.29l-47.16,65.26q-21.91,30.3-43.83,60.58c-4,5.57-8.07,11.13-12,16.78-2,2.83-1.77,3.76.44,6.35.41.48.9.91,1.32,1.39,3.92,4.42,7.93,8.76,11.72,13.29a201.65,201.65,0,0,1,31.86,52.71c2.1,5.07,2.11,4.16,6.14,2.58q34.57-13.56,69.08-27.28L899.05,335a25.09,25.09,0,0,1,3.18-1,1.12,1.12,0,0,1,1.4,1c.28,1.89.39,3.81.64,5.71,1.15,8.7,2.35,17.39,3.49,26.09.78,6,1.45,12,2.25,18,1.12,8.54,2.34,17.07,3.46,25.61.81,6.17,1.49,12.35,2.27,18.53.85,6.64,1.76,13.28,2.65,19.92.84,6.32,1.7,12.64,2.54,19q1.1,8.29,2.15,16.61c.78,6.17,1.5,12.35,2.3,18.52.83,6.49,1.72,13,2.58,19.45s1.67,12.65,2.5,19q1.13,8.53,2.23,17.08c.78,6.17,1.51,12.35,2.32,18.52,1.1,8.38,2.31,16.75,3.39,25.13,1.1,8.55,2.1,17.1,3.17,25.65.33,2.69.72,5.37,1.12,8a.93.93,0,0,0,.63.57,1,1,0,0,0,.74-.4,6.37,6.37,0,0,0,.66-1.27c3.92-9.27,7.64-18.63,10.7-28.21a477,477,0,0,0,16.93-71.67c1.9-12.16,3.37-24.35,4.24-36.59C977.29,488.21,978,478.16,977.74,468.37ZM557.23,603.55a120.56,120.56,0,0,0,33.69-4.3q64.33-17.94,90.84-79.36a123.24,123.24,0,0,0,9.11-35.12c.54-4.73.41-4.76-4-3L541.71,539.14c-8.61,3.41-17.21,6.84-25.83,10.22-1.83.72-2.37.38-2.56-1.39-.34-3.18-.65-6.36-1-9.53-.72-7.47-1.42-15-2.16-22.42-.83-8.26-1.71-16.51-2.53-24.77-.79-7.95-1.52-15.9-2.31-23.85-1.17-11.76-2.38-23.51-3.55-35.27-.74-7.47-1.41-14.94-2.15-22.41q-1.79-17.88-3.6-35.75c-.7-7-1.36-14-2.06-21-.12-1.24-.81-1.56-2-.93-.84.46-1.65,1-2.46,1.48a156.73,156.73,0,0,0-33.84,28.07c-19.23,21.21-30.18,46-32.29,74.64a152.42,152.42,0,0,0,5.1,50.3c6.28,23.82,18.93,43.82,37,60.44C491.47,590.81,522,603.2,557.23,603.55Zm7-136.36c1.8-.69,3-1.14,4.17-1.61l109.53-43.26c1.19-.47,2.39-.89,3.55-1.43a1.24,1.24,0,0,0,.73-1.57c-.36-1.05-.77-2.09-1.21-3.12a132.72,132.72,0,0,0-26-39.39c-10.25-10.69-21.8-19.84-35-26.43-19.66-9.78-40.45-15.66-62.61-15.81-1.59,0-3.18-.05-4.76.05-1.23.08-1.58.62-1.45,1.94q1.43,14.54,2.87,29.06,1.79,17.86,3.58,35.74c.76,7.62,1.47,15.25,2.23,22.88.83,8.41,1.7,16.83,2.56,25.24C563,455.18,563.54,460.88,564.19,467.19Z"/>
  <path class="cls-2" d="M73.94,773.07l80.85,68c.13,1.45-.68,2-1.26,2.73q-12.61,15-25.26,30.05c-.52.61-1.05,1.21-1.59,1.79a1.43,1.43,0,0,1-2.12.06c-.63-.48-1.23-1-1.84-1.53L46.14,809.75a17.2,17.2,0,0,1-1.44-1.25,1.17,1.17,0,0,1-.13-1.69c.5-.63,1-1.24,1.53-1.85l25.29-30A3.83,3.83,0,0,1,73.94,773.07Z"/>
  <path class="cls-9" d="M854.63,415.75c1.54,4.78,1.51,9.3,2.18,13.7,1.4,9.14,2.52,18.33,3.69,27.51,1.12,8.71,2.11,17.43,3.24,26.13,1.11,8.54,2.35,17.07,3.48,25.61.76,5.69,1.41,11.4,2.15,17.1.86,6.64,1.79,13.28,2.65,19.92.77,6,1.46,12,2.23,18.06s1.63,12,2.42,18c.78,5.85,1.51,11.71,2.28,17.56,1.18,9,2.41,18,3.58,27,.8,6.18,1.5,12.36,2.28,18.54q1.11,8.77,2.28,17.56,1.21,9.25,2.45,18.51t2.42,18.5c.78,6,1.51,12,2.37,18a7.68,7.68,0,0,1-1.84,6.17c-7.42,9.62-15,19.06-23.14,28.14-8.73,9.8-18,19.09-27.55,28A381.39,381.39,0,0,1,803.52,811a394.94,394.94,0,0,1-58.07,34.46,433.42,433.42,0,0,1-63.82,24.77,445.9,445.9,0,0,1-47.91,11.67c-10.36,1.91-20.78,3.46-31.26,4.57-10,1.06-20,1.63-30.1,2.09a179,179,0,0,1-18.66.32c-8.45-.51-16.93-.24-25.34-1.32-3.8-.49-7.64-.63-11.45-1a384.23,384.23,0,0,1-44.4-7.25,444,444,0,0,1-87.07-29.23A374.31,374.31,0,0,1,342.37,827c-.95-.59-1.9-1.18-2.79-1.86a2,2,0,0,1-.56-2.93c2.07-3,4.22-6,6.37-9l41.29-57.12q20.93-28.94,41.88-57.87,13.47-18.65,26.89-37.35c4-5.54,4.49-5.74,10.54-2.87a223,223,0,0,0,48.34,16.73,231.91,231.91,0,0,0,23.16,3.66,203.2,203.2,0,0,0,72.65-6.1,226.87,226.87,0,0,0,43-16.14,196.8,196.8,0,0,0,42-28.39,214.63,214.63,0,0,0,36.34-41.25,207.72,207.72,0,0,0,30-68A193.53,193.53,0,0,0,765.94,493a231.54,231.54,0,0,0,1.51-27.23c-.05-3.5-.54-7-.62-10.5-.14-5.67-1-4.5,4.56-6.75,7.84-3.2,15.74-6.25,23.62-9.35l56.62-22.34C852.51,416.53,853.41,416.21,854.63,415.75Z"/>
  <path class="cls-10" d="M182.48,288.11c1.42,5.31,1.55,10.73,2.43,16s1.44,10.76,2.14,16.14,1.41,10.75,2.11,16.09c2,.51,3.19-.83,4.5-1.6q22.16-12.93,44.26-25.93l127.31-74.77,105.41-61.9c1.1-.65,2.2-1.31,3.33-1.9s1.8-.34,1.94,1q1,9,1.88,18.11,1.36,13.33,2.67,26.69c.81,8.26,1.52,16.53,2.34,24.8.79,7.94,1.68,15.88,2.46,23.82.22,2.22.86,4.71.12,6.62-.8,2.06-3.72,2.12-5.74,2.93a202.82,202.82,0,0,0-66.18,42.4c-32.13,30.92-52.91,68.15-61.95,111.85a202.05,202.05,0,0,0-3.45,25.14,193.57,193.57,0,0,0-.41,25.37c2.44,45.27,17.86,85.65,45.9,121.24a174.68,174.68,0,0,0,16.34,18.16c.93.88,1.86,1.77,2.71,2.72,1.24,1.39,1.31,2.26.34,3.88-.48.82-1.07,1.59-1.63,2.37Q353.59,707.19,295.85,787c-.19.26-.34.54-.53.8-2.37,3.16-3,3.27-6.1.74-7-5.8-13.79-11.91-20.36-18.21A415.65,415.65,0,0,1,148.59,551.62q-4.2-20.93-6.32-42.14c-.67-6.67-.88-13.38-1.34-20.08-.5-7.33-.53-14.67-.6-22-.08-9,.37-17.89,1-26.81A411.6,411.6,0,0,1,151,375.25a417.14,417.14,0,0,1,28.53-82.72c.61-1.3,1.27-2.58,2-3.85C181.58,288.47,182,288.4,182.48,288.11Z"/>
  <path class="cls-11" d="M555.87,51.87a427.64,427.64,0,0,1,45.63,2.61A432.29,432.29,0,0,1,723.37,86.42a404.77,404.77,0,0,1,51.81,27c5.05,3.07,5.11,3.56,1.6,8.42L666.09,274.86c-1.4,1.95-2.76,3.92-4.19,5.85-3.09,4.16-3.86,4.3-8.3,2.08-4.15-2.06-8.29-4.15-12.52-6a204.69,204.69,0,0,0-52.31-15.07,229.93,229.93,0,0,0-37.25-2.35c-1.92,0-3.82.32-5.73.38s-2.28-.32-2.48-2.11c-.33-3-.63-6-.92-9-1.08-11.29-2.12-22.57-3.23-33.85s-2.33-22.56-3.46-33.84c-.79-7.94-1.46-15.89-2.25-23.84-1.12-11.12-2.31-22.23-3.43-33.34-.77-7.63-1.48-15.26-2.21-22.89-.74-7.79-1.47-15.58-2.24-23.37a34.36,34.36,0,0,0-.65-3.76.8.8,0,0,0-1.1-.58,30.82,30.82,0,0,0-2.94,1.58q-40.71,23.91-81.41,47.82L263.79,225.62c-8.54,5-17.06,10.06-25.6,15.07-1.92,1.13-2.54.84-2.83-1.26q-1.05-7.83-2.05-15.67c-.53-4.12-.92-8.26-1.62-12.35a4.87,4.87,0,0,1,1.24-4.36c5.88-6.75,11.55-13.68,17.61-20.26a418.69,418.69,0,0,1,67.51-59.45C347,107,378.22,91.14,411.31,78.83A435.62,435.62,0,0,1,478,59.77q17.14-3.44,34.56-5.31C527.35,52.83,542.17,52,555.87,51.87Z"/>
  <path class="cls-12" d="M977.74,468.37c.3,9.79-.45,19.84-1.15,29.86-.87,12.24-2.34,24.43-4.24,36.59a477,477,0,0,1-16.93,71.67c-3.06,9.58-6.78,18.94-10.7,28.21a6.37,6.37,0,0,1-.66,1.27,1,1,0,0,1-.74.4.93.93,0,0,1-.63-.57c-.4-2.68-.79-5.36-1.12-8-1.07-8.55-2.07-17.1-3.17-25.65-1.08-8.38-2.29-16.75-3.39-25.13-.81-6.17-1.54-12.35-2.32-18.52q-1.1-8.55-2.23-17.08-1.25-9.5-2.5-19c-.86-6.48-1.75-13-2.58-19.45-.8-6.17-1.52-12.35-2.3-18.52q-1.05-8.31-2.15-16.61c-.84-6.33-1.7-12.65-2.54-19-.89-6.64-1.8-13.28-2.65-19.92-.78-6.18-1.46-12.36-2.27-18.53-1.12-8.54-2.34-17.07-3.46-25.61-.8-6-1.47-12-2.25-18-1.14-8.7-2.34-17.39-3.49-26.09-.25-1.9-.36-3.82-.64-5.71a1.12,1.12,0,0,0-1.4-1,25.09,25.09,0,0,0-3.18,1l-72.62,28.78q-34.51,13.66-69.08,27.28c-4,1.58-4,2.49-6.14-2.58a201.65,201.65,0,0,0-31.86-52.71c-3.79-4.53-7.8-8.87-11.72-13.29-.42-.48-.91-.91-1.32-1.39-2.21-2.59-2.4-3.52-.44-6.35,3.91-5.65,8-11.21,12-16.78q21.9-30.3,43.83-60.58l47.16-65.26c4.4-6.09,8.91-12.1,13.16-18.29,2.88-4.21,4.75-3.57,7.69-1,10.53,9.09,20.84,18.41,30.56,28.37a358.07,358.07,0,0,1,33.23,39A479.17,479.17,0,0,1,925,269.41,432.43,432.43,0,0,1,953,330.27a385.08,385.08,0,0,1,17,60.3c1.82,9.39,3.46,18.84,4.63,28.33,1.11,9,2,18.07,2.34,27.18C977.3,453.41,977.9,460.73,977.74,468.37Z"/>
  <path class="cls-13" d="M557.23,603.55C522,603.2,491.47,590.81,465.55,567c-18.09-16.62-30.74-36.62-37-60.44a152.42,152.42,0,0,1-5.1-50.3c2.11-28.6,13.06-53.43,32.29-74.64a156.73,156.73,0,0,1,33.84-28.07c.81-.5,1.62-1,2.46-1.48,1.17-.63,1.86-.31,2,.93.7,7,1.36,14,2.06,21q1.79,17.88,3.6,35.75c.74,7.47,1.41,14.94,2.15,22.41,1.17,11.76,2.38,23.51,3.55,35.27.79,8,1.52,15.9,2.31,23.85.82,8.26,1.7,16.51,2.53,24.77.74,7.47,1.44,15,2.16,22.42.31,3.17.62,6.35,1,9.53.19,1.77.73,2.11,2.56,1.39,8.62-3.38,17.22-6.81,25.83-10.22l145.18-57.39c4.39-1.74,4.52-1.71,4,3a123.24,123.24,0,0,1-9.11,35.12q-26.47,61.29-90.84,79.36A120.56,120.56,0,0,1,557.23,603.55Z"/>
  <path class="cls-13" d="M564.19,467.19c-.65-6.31-1.24-12-1.82-17.71-.86-8.41-1.73-16.83-2.56-25.24-.76-7.63-1.47-15.26-2.23-22.88q-1.77-17.88-3.58-35.74-1.46-14.53-2.87-29.06c-.13-1.32.22-1.86,1.45-1.94,1.58-.1,3.17-.06,4.76-.05,22.16.15,42.95,6,62.61,15.81,13.24,6.59,24.79,15.74,35,26.43a132.72,132.72,0,0,1,26,39.39c.44,1,.85,2.07,1.21,3.12a1.24,1.24,0,0,1-.73,1.57c-1.16.54-2.36,1-3.55,1.43L568.36,465.58C567.18,466.05,566,466.5,564.19,467.19Z"/>
</svg>
